
<svg width="376" height="125" viewBox="0 0 376 125" fill="none" xmlns="http://www.w3.org/2000/svg">
<path d="M87.9233 47.6818C84.4384 47.6818 81.446 46.9167 78.946 45.3864C76.4612 43.8561 74.5445 41.7424 73.196 39.0455C71.8627 36.3333 71.196 33.2121 71.196 29.6818C71.196 26.1364 71.8778 23.0076 73.2415 20.2955C74.6051 17.5682 76.5294 15.447 79.0142 13.9318C81.5142 12.4015 84.4688 11.6364 87.8778 11.6364C90.7112 11.6364 93.2188 12.1591 95.4006 13.2045C97.5975 14.2348 99.3475 15.697 100.651 17.5909C101.954 19.4697 102.696 21.6667 102.878 24.1818H95.0142C94.696 22.5 93.9384 21.0985 92.7415 19.9773C91.5597 18.8409 89.9763 18.2727 87.9915 18.2727C86.3097 18.2727 84.8324 18.7273 83.5597 19.6364C82.2869 20.5303 81.2945 21.8182 80.5824 23.5C79.8854 25.1818 79.5369 27.197 79.5369 29.5455C79.5369 31.9242 79.8854 33.9697 80.5824 35.6818C81.2794 37.3788 82.2566 38.6894 83.5142 39.6136C84.7869 40.5227 86.2794 40.9773 87.9915 40.9773C89.2036 40.9773 90.2869 40.75 91.2415 40.2955C92.2112 39.8258 93.0218 39.1515 93.6733 38.2727C94.3248 37.3939 94.7718 36.3258 95.0142 35.0682H102.878C102.681 37.5379 101.954 39.7273 100.696 41.6364C99.4384 43.5303 97.7263 45.0152 95.5597 46.0909C93.393 47.1515 90.8475 47.6818 87.9233 47.6818ZM124.861 47.6818C121.452 47.6818 118.497 46.9318 115.997 45.4318C113.497 43.9318 111.558 41.8333 110.179 39.1364C108.815 36.4394 108.134 33.2879 108.134 29.6818C108.134 26.0758 108.815 22.9167 110.179 20.2045C111.558 17.4924 113.497 15.3864 115.997 13.8864C118.497 12.3864 121.452 11.6364 124.861 11.6364C128.27 11.6364 131.224 12.3864 133.724 13.8864C136.224 15.3864 138.156 17.4924 139.52 20.2045C140.899 22.9167 141.588 26.0758 141.588 29.6818C141.588 33.2879 140.899 36.4394 139.52 39.1364C138.156 41.8333 136.224 43.9318 133.724 45.4318C131.224 46.9318 128.27 47.6818 124.861 47.6818ZM124.906 41.0909C126.755 41.0909 128.3 40.5833 129.543 39.5682C130.785 38.5379 131.709 37.1591 132.315 35.4318C132.937 33.7045 133.247 31.7803 133.247 29.6591C133.247 27.5227 132.937 25.5909 132.315 23.8636C131.709 22.1212 130.785 20.7348 129.543 19.7045C128.3 18.6742 126.755 18.1591 124.906 18.1591C123.012 18.1591 121.437 18.6742 120.179 19.7045C118.937 20.7348 118.005 22.1212 117.384 23.8636C116.777 25.5909 116.474 27.5227 116.474 29.6591C116.474 31.7803 116.777 33.7045 117.384 35.4318C118.005 37.1591 118.937 38.5379 120.179 39.5682C121.437 40.5833 123.012 41.0909 124.906 41.0909ZM176.162 21.3182L168.662 22.1364C168.45 21.3788 168.079 20.6667 167.548 20C167.033 19.3333 166.336 18.7955 165.457 18.3864C164.579 17.9773 163.503 17.7727 162.23 17.7727C160.518 17.7727 159.079 18.1439 157.912 18.8864C156.76 19.6288 156.192 20.5909 156.207 21.7727C156.192 22.7879 156.563 23.6136 157.321 24.25C158.094 24.8864 159.366 25.4091 161.139 25.8182L167.094 27.0909C170.397 27.803 172.851 28.9318 174.457 30.4773C176.079 32.0227 176.897 34.0455 176.912 36.5455C176.897 38.7424 176.253 40.6818 174.98 42.3636C173.723 44.0303 171.973 45.3333 169.73 46.2727C167.488 47.2121 164.912 47.6818 162.003 47.6818C157.73 47.6818 154.291 46.7879 151.685 45C149.079 43.197 147.526 40.6894 147.026 37.4773L155.048 36.7045C155.412 38.2803 156.185 39.4697 157.366 40.2727C158.548 41.0758 160.086 41.4773 161.98 41.4773C163.935 41.4773 165.503 41.0758 166.685 40.2727C167.882 39.4697 168.48 38.4773 168.48 37.2955C168.48 36.2955 168.094 35.4697 167.321 34.8182C166.563 34.1667 165.382 33.6667 163.776 33.3182L157.821 32.0682C154.473 31.3712 151.995 30.197 150.389 28.5455C148.783 26.8788 147.988 24.7727 148.003 22.2273C147.988 20.0758 148.571 18.2121 149.753 16.6364C150.95 15.0455 152.609 13.8182 154.73 12.9545C156.866 12.0758 159.329 11.6364 162.116 11.6364C166.207 11.6364 169.427 12.5076 171.776 14.25C174.139 15.9924 175.601 18.3485 176.162 21.3182ZM183.696 60.0909V12.0909H191.787V17.8636H192.264C192.688 17.0152 193.287 16.1136 194.06 15.1591C194.832 14.1894 195.878 13.3636 197.196 12.6818C198.514 11.9848 200.196 11.6364 202.241 11.6364C204.938 11.6364 207.37 12.3258 209.537 13.7045C211.719 15.0682 213.446 17.0909 214.719 19.7727C216.007 22.4394 216.651 25.7121 216.651 29.5909C216.651 33.4242 216.022 36.6818 214.764 39.3636C213.507 42.0455 211.795 44.0909 209.628 45.5C207.461 46.9091 205.007 47.6136 202.264 47.6136C200.264 47.6136 198.605 47.2803 197.287 46.6136C195.969 45.947 194.908 45.1439 194.105 44.2045C193.317 43.25 192.704 42.3485 192.264 41.5H191.923V60.0909H183.696ZM191.764 29.5455C191.764 31.803 192.082 33.7803 192.719 35.4773C193.37 37.1742 194.302 38.5 195.514 39.4545C196.741 40.3939 198.226 40.8636 199.969 40.8636C201.787 40.8636 203.31 40.3788 204.537 39.4091C205.764 38.4242 206.688 37.0833 207.31 35.3864C207.946 33.6742 208.264 31.7273 208.264 29.5455C208.264 27.3788 207.954 25.4545 207.332 23.7727C206.711 22.0909 205.787 20.7727 204.56 19.8182C203.332 18.8636 201.802 18.3864 199.969 18.3864C198.211 18.3864 196.719 18.8485 195.491 19.7727C194.264 20.697 193.332 21.9924 192.696 23.6591C192.075 25.3258 191.764 27.2879 191.764 29.5455ZM231.923 0.454544V47H223.696V0.454544H231.923ZM250.429 47.7045C248.217 47.7045 246.224 47.3106 244.452 46.5227C242.694 45.7197 241.3 44.5379 240.27 42.9773C239.255 41.4167 238.747 39.4924 238.747 37.2045C238.747 35.2348 239.111 33.6061 239.838 32.3182C240.565 31.0303 241.558 30 242.815 29.2273C244.073 28.4545 245.49 27.8712 247.065 27.4773C248.656 27.0682 250.3 26.7727 251.997 26.5909C254.043 26.3788 255.702 26.1894 256.974 26.0227C258.247 25.8409 259.171 25.5682 259.747 25.2045C260.338 24.8258 260.634 24.2424 260.634 23.4545V23.3182C260.634 21.6061 260.126 20.2803 259.111 19.3409C258.096 18.4015 256.634 17.9318 254.724 17.9318C252.709 17.9318 251.111 18.3712 249.929 19.25C248.762 20.1288 247.974 21.1667 247.565 22.3636L239.884 21.2727C240.49 19.1515 241.49 17.3788 242.884 15.9545C244.277 14.5151 245.982 13.4394 247.997 12.7273C250.012 12 252.24 11.6364 254.679 11.6364C256.361 11.6364 258.035 11.8333 259.702 12.2273C261.368 12.6212 262.891 13.2727 264.27 14.1818C265.649 15.0758 266.755 16.2955 267.588 17.8409C268.437 19.3864 268.861 21.3182 268.861 23.6364V47H260.952V42.2045H260.679C260.179 43.1742 259.474 44.0833 258.565 44.9318C257.671 45.7652 256.543 46.4394 255.179 46.9545C253.83 47.4545 252.247 47.7045 250.429 47.7045ZM252.565 41.6591C254.217 41.6591 255.649 41.3333 256.861 40.6818C258.073 40.0152 259.005 39.1364 259.656 38.0455C260.323 36.9545 260.656 35.7652 260.656 34.4773V30.3636C260.399 30.5758 259.959 30.7727 259.338 30.9545C258.732 31.1364 258.05 31.2955 257.293 31.4318C256.535 31.5682 255.785 31.6894 255.043 31.7955C254.3 31.9015 253.656 31.9924 253.111 32.0682C251.884 32.2348 250.785 32.5076 249.815 32.8864C248.846 33.2652 248.08 33.7955 247.52 34.4773C246.959 35.1439 246.679 36.0076 246.679 37.0682C246.679 38.5833 247.232 39.7273 248.338 40.5C249.444 41.2727 250.853 41.6591 252.565 41.6591ZM280.997 60.0909C279.876 60.0909 278.838 60 277.884 59.8182C276.944 59.6515 276.194 59.4545 275.634 59.2273L277.543 52.8182C278.74 53.1667 279.808 53.3333 280.747 53.3182C281.687 53.303 282.512 53.0076 283.224 52.4318C283.952 51.8712 284.565 50.9318 285.065 49.6136L285.77 47.7273L273.111 12.0909H281.838L289.884 38.4545H290.247L298.315 12.0909H307.065L293.088 51.2273C292.437 53.0758 291.573 54.6591 290.497 55.9773C289.421 57.3106 288.103 58.3258 286.543 59.0227C284.997 59.7348 283.149 60.0909 280.997 60.0909ZM21.0028 89.0909V95.4545H0.366477V89.0909H21.0028ZM5.52557 124V85.7955C5.52557 83.447 6.01042 81.4924 6.98011 79.9318C7.96496 78.3712 9.28314 77.2045 10.9347 76.4318C12.5862 75.6591 14.4195 75.2727 16.4347 75.2727C17.8589 75.2727 19.1241 75.3864 20.2301 75.6136C21.3362 75.8409 22.1544 76.0455 22.6847 76.2273L21.0483 82.5909C20.6998 82.4848 20.2604 82.3788 19.7301 82.2727C19.1998 82.1515 18.6089 82.0909 17.9574 82.0909C16.4271 82.0909 15.3438 82.4621 14.7074 83.2045C14.0862 83.9318 13.7756 84.9773 13.7756 86.3409V124H5.52557ZM27.446 124V89.0909H35.4233V94.9091H35.7869C36.4233 92.8939 37.5142 91.3409 39.0597 90.25C40.6203 89.1439 42.4006 88.5909 44.4006 88.5909C44.8551 88.5909 45.3627 88.6136 45.9233 88.6591C46.4991 88.6894 46.9763 88.7424 47.3551 88.8182V96.3864C47.0066 96.2652 46.4536 96.1591 45.696 96.0682C44.9536 95.9621 44.2339 95.9091 43.5369 95.9091C42.0369 95.9091 40.6884 96.2348 39.4915 96.8864C38.3097 97.5227 37.3778 98.4091 36.696 99.5455C36.0142 100.682 35.6733 101.992 35.6733 103.477V124H27.446ZM66.6108 124.682C63.2017 124.682 60.2472 123.932 57.7472 122.432C55.2472 120.932 53.3078 118.833 51.929 116.136C50.5653 113.439 49.8835 110.288 49.8835 106.682C49.8835 103.076 50.5653 99.9167 51.929 97.2045C53.3078 94.4924 55.2472 92.3864 57.7472 90.8864C60.2472 89.3864 63.2017 88.6364 66.6108 88.6364C70.0199 88.6364 72.9744 89.3864 75.4744 90.8864C77.9744 92.3864 79.9063 94.4924 81.2699 97.2045C82.6487 99.9167 83.3381 103.076 83.3381 106.682C83.3381 110.288 82.6487 113.439 81.2699 116.136C79.9063 118.833 77.9744 120.932 75.4744 122.432C72.9744 123.932 70.0199 124.682 66.6108 124.682ZM66.6562 118.091C68.5047 118.091 70.0502 117.583 71.2926 116.568C72.535 115.538 73.4593 114.159 74.0653 112.432C74.6866 110.705 74.9972 108.78 74.9972 106.659C74.9972 104.523 74.6866 102.591 74.0653 100.864C73.4593 99.1212 72.535 97.7348 71.2926 96.7045C70.0502 95.6742 68.5047 95.1591 66.6562 95.1591C64.7623 95.1591 63.1866 95.6742 61.929 96.7045C60.6866 97.7348 59.7547 99.1212 59.1335 100.864C58.5275 102.591 58.2244 104.523 58.2244 106.659C58.2244 108.78 58.5275 110.705 59.1335 112.432C59.7547 114.159 60.6866 115.538 61.929 116.568C63.1866 117.583 64.7623 118.091 66.6562 118.091ZM90.321 124V89.0909H98.1847V95.0227H98.5938C99.321 93.0227 100.526 91.4621 102.207 90.3409C103.889 89.2045 105.897 88.6364 108.23 88.6364C110.594 88.6364 112.586 89.2121 114.207 90.3636C115.844 91.5 116.995 93.053 117.662 95.0227H118.026C118.798 93.0833 120.101 91.5379 121.935 90.3864C123.783 89.2197 125.973 88.6364 128.503 88.6364C131.715 88.6364 134.336 89.6515 136.366 91.6818C138.397 93.7121 139.412 96.6742 139.412 100.568V124H131.162V101.841C131.162 99.6742 130.586 98.0909 129.435 97.0909C128.283 96.0758 126.874 95.5682 125.207 95.5682C123.223 95.5682 121.67 96.1894 120.548 97.4318C119.442 98.6591 118.889 100.258 118.889 102.227V124H110.821V101.5C110.821 99.697 110.276 98.2576 109.185 97.1818C108.109 96.1061 106.7 95.5682 104.957 95.5682C103.776 95.5682 102.7 95.8712 101.73 96.4773C100.76 97.0682 99.9877 97.9091 99.4119 99C98.8362 100.076 98.5483 101.333 98.5483 102.773V124H90.321ZM173.679 124.705C171.467 124.705 169.474 124.311 167.702 123.523C165.944 122.72 164.55 121.538 163.52 119.977C162.505 118.417 161.997 116.492 161.997 114.205C161.997 112.235 162.361 110.606 163.088 109.318C163.815 108.03 164.808 107 166.065 106.227C167.323 105.455 168.74 104.871 170.315 104.477C171.906 104.068 173.55 103.773 175.247 103.591C177.293 103.379 178.952 103.189 180.224 103.023C181.497 102.841 182.421 102.568 182.997 102.205C183.588 101.826 183.884 101.242 183.884 100.455V100.318C183.884 98.6061 183.376 97.2803 182.361 96.3409C181.346 95.4015 179.884 94.9318 177.974 94.9318C175.959 94.9318 174.361 95.3712 173.179 96.25C172.012 97.1288 171.224 98.1667 170.815 99.3636L163.134 98.2727C163.74 96.1515 164.74 94.3788 166.134 92.9545C167.527 91.5151 169.232 90.4394 171.247 89.7273C173.262 89 175.49 88.6364 177.929 88.6364C179.611 88.6364 181.285 88.8333 182.952 89.2273C184.618 89.6212 186.141 90.2727 187.52 91.1818C188.899 92.0758 190.005 93.2955 190.838 94.8409C191.687 96.3864 192.111 98.3182 192.111 100.636V124H184.202V119.205H183.929C183.429 120.174 182.724 121.083 181.815 121.932C180.921 122.765 179.793 123.439 178.429 123.955C177.08 124.455 175.497 124.705 173.679 124.705ZM175.815 118.659C177.467 118.659 178.899 118.333 180.111 117.682C181.323 117.015 182.255 116.136 182.906 115.045C183.573 113.955 183.906 112.765 183.906 111.477V107.364C183.649 107.576 183.209 107.773 182.588 107.955C181.982 108.136 181.3 108.295 180.543 108.432C179.785 108.568 179.035 108.689 178.293 108.795C177.55 108.902 176.906 108.992 176.361 109.068C175.134 109.235 174.035 109.508 173.065 109.886C172.096 110.265 171.33 110.795 170.77 111.477C170.209 112.144 169.929 113.008 169.929 114.068C169.929 115.583 170.482 116.727 171.588 117.5C172.694 118.273 174.103 118.659 175.815 118.659ZM200.384 124V89.0909H208.361V94.9091H208.724C209.361 92.8939 210.452 91.3409 211.997 90.25C213.558 89.1439 215.338 88.5909 217.338 88.5909C217.793 88.5909 218.3 88.6136 218.861 88.6591C219.437 88.6894 219.914 88.7424 220.293 88.8182V96.3864C219.944 96.2652 219.391 96.1591 218.634 96.0682C217.891 95.9621 217.171 95.9091 216.474 95.9091C214.974 95.9091 213.626 96.2348 212.429 96.8864C211.247 97.5227 210.315 98.4091 209.634 99.5455C208.952 100.682 208.611 101.992 208.611 103.477V124H200.384ZM233.986 103.545V124H225.759V89.0909H233.622V95.0227H234.031C234.834 93.0682 236.115 91.5152 237.872 90.3636C239.645 89.2121 241.834 88.6364 244.44 88.6364C246.849 88.6364 248.948 89.1515 250.736 90.1818C252.539 91.2121 253.933 92.7045 254.918 94.6591C255.918 96.6136 256.41 98.9848 256.395 101.773V124H248.168V103.045C248.168 100.712 247.562 98.8864 246.349 97.5682C245.152 96.25 243.493 95.5909 241.372 95.5909C239.933 95.5909 238.652 95.9091 237.531 96.5455C236.425 97.1667 235.554 98.0682 234.918 99.25C234.296 100.432 233.986 101.864 233.986 103.545ZM279.986 124.682C276.577 124.682 273.622 123.932 271.122 122.432C268.622 120.932 266.683 118.833 265.304 116.136C263.94 113.439 263.259 110.288 263.259 106.682C263.259 103.076 263.94 99.9167 265.304 97.2045C266.683 94.4924 268.622 92.3864 271.122 90.8864C273.622 89.3864 276.577 88.6364 279.986 88.6364C283.395 88.6364 286.349 89.3864 288.849 90.8864C291.349 92.3864 293.281 94.4924 294.645 97.2045C296.024 99.9167 296.713 103.076 296.713 106.682C296.713 110.288 296.024 113.439 294.645 116.136C293.281 118.833 291.349 120.932 288.849 122.432C286.349 123.932 283.395 124.682 279.986 124.682ZM280.031 118.091C281.88 118.091 283.425 117.583 284.668 116.568C285.91 115.538 286.834 114.159 287.44 112.432C288.062 110.705 288.372 108.78 288.372 106.659C288.372 104.523 288.062 102.591 287.44 100.864C286.834 99.1212 285.91 97.7348 284.668 96.7045C283.425 95.6742 281.88 95.1591 280.031 95.1591C278.137 95.1591 276.562 95.6742 275.304 96.7045C274.062 97.7348 273.13 99.1212 272.509 100.864C271.902 102.591 271.599 104.523 271.599 106.659C271.599 108.78 271.902 110.705 272.509 112.432C273.13 114.159 274.062 115.538 275.304 116.568C276.562 117.583 278.137 118.091 280.031 118.091ZM311.923 77.4545V124H303.696V77.4545H311.923ZM338.065 89.0909V95.4545H317.429V89.0909H338.065ZM322.588 124V85.7955C322.588 83.447 323.073 81.4924 324.043 79.9318C325.027 78.3712 326.346 77.2045 327.997 76.4318C329.649 75.6591 331.482 75.2727 333.497 75.2727C334.921 75.2727 336.187 75.3864 337.293 75.6136C338.399 75.8409 339.217 76.0455 339.747 76.2273L338.111 82.5909C337.762 82.4848 337.323 82.3788 336.793 82.2727C336.262 82.1515 335.671 82.0909 335.02 82.0909C333.49 82.0909 332.406 82.4621 331.77 83.2045C331.149 83.9318 330.838 84.9773 330.838 86.3409V124H322.588ZM358.423 124.682C355.014 124.682 352.06 123.932 349.56 122.432C347.06 120.932 345.12 118.833 343.741 116.136C342.378 113.439 341.696 110.288 341.696 106.682C341.696 103.076 342.378 99.9167 343.741 97.2045C345.12 94.4924 347.06 92.3864 349.56 90.8864C352.06 89.3864 355.014 88.6364 358.423 88.6364C361.832 88.6364 364.787 89.3864 367.287 90.8864C369.787 92.3864 371.719 94.4924 373.082 97.2045C374.461 99.9167 375.151 103.076 375.151 106.682C375.151 110.288 374.461 113.439 373.082 116.136C371.719 118.833 369.787 120.932 367.287 122.432C364.787 123.932 361.832 124.682 358.423 124.682ZM358.469 118.091C360.317 118.091 361.863 117.583 363.105 116.568C364.348 115.538 365.272 114.159 365.878 112.432C366.499 110.705 366.81 108.78 366.81 106.659C366.81 104.523 366.499 102.591 365.878 100.864C365.272 99.1212 364.348 97.7348 363.105 96.7045C361.863 95.6742 360.317 95.1591 358.469 95.1591C356.575 95.1591 354.999 95.6742 353.741 96.7045C352.499 97.7348 351.567 99.1212 350.946 100.864C350.34 102.591 350.037 104.523 350.037 106.659C350.037 108.78 350.34 110.705 350.946 112.432C351.567 114.159 352.499 115.538 353.741 116.568C354.999 117.583 356.575 118.091 358.469 118.091Z" fill="white"/>
</svg>
